/* XPM */
static char *_41941dafa054f94f76116e5bea3f5deiBHM1EwKD5fgUS8h[] = {
/* columns rows colors chars-per-pixel */
"64 64 226 2 ",
"   c None",
".  c #151416",
"X  c #14151A",
"o  c #17181C",
"O  c #1C1C1D",
"+  c #191816",
"@  c #0C0E15",
"#  c #211F1E",
"$  c #29251D",
"%  c #29251D",
"&  c #372B13",
"*  c #3E3115",
"=  c #37290E",
"-  c #1D1D21",
";  c #201F22",
":  c #1F2023",
">  c #232324",
",  c #292624",
"<  c #2C2A26",
"1  c #262629",
"2  c #2B2B2B",
"3  c #27282A",
"4  c #312E2B",
"5  c #322D25",
"6  c #34322C",
"7  c #3A3528",
"8  c #2E2E31",
"9  c #343333",
"0  c #393735",
"q  c #3C3934",
"w  c #3C3C3C",
"e  c #383738",
"r  c #2F3031",
"t  c #433414",
"y  c #4B3D1B",
"u  c #46381A",
"i  c #42300E",
"p  c #443C2B",
"a  c #423E39",
"s  c #58461C",
"d  c #66501D",
"f  c #4B422D",
"g  c #474129",
"h  c #564928",
"j  c #5E522C",
"k  c #4B4434",
"l  c #44413C",
"z  c #4B463A",
"x  c #544B36",
"c  c #5C533C",
"v  c #5C5336",
"b  c #67562A",
"n  c #735C27",
"m  c #665A3A",
"M  c #624F23",
"N  c #78642C",
"B  c #786636",
"V  c #6E613B",
"C  c #3E3F41",
"Z  c #423F41",
"A  c #3F4041",
"S  c #434242",
"D  c #4C4A44",
"F  c #4B4949",
"G  c #4A4643",
"H  c #514D4B",
"J  c #534C45",
"K  c #5A554A",
"L  c #5D5954",
"P  c #595553",
"I  c #635A47",
"U  c #635C52",
"Y  c #625E5B",
"T  c #6C6348",
"R  c #796C49",
"E  c #756845",
"W  c #686459",
"Q  c #756B57",
"!  c #7A7259",
"~  c #7D714C",
"^  c #6C6765",
"/  c #736D63",
"(  c #726D6A",
")  c #7A766A",
"_  c #797573",
"`  c #866C2A",
"'  c #92752C",
"]  c #97792A",
"[  c #846C36",
"{  c #8D7432",
"}  c #87753C",
"|  c #957B34",
" . c #957A35",
".. c #8D722E",
"X. c #867648",
"o. c #947C46",
"O. c #867954",
"+. c #907F54",
"@. c #837C67",
"#. c #847C71",
"$. c #7F8173",
"%. c #9D8338",
"&. c #A48534",
"*. c #A98A35",
"=. c #A7893A",
"-. c #B3923A",
";. c #BD9B3C",
":. c #B7953A",
">. c #B18F37",
",. c #C29E3D",
"<. c #C4A13E",
"1. c #CAA53E",
"2. c #9A8446",
"3. c #988856",
"4. c #8F8153",
"5. c #A48B43",
"6. c #A78B4A",
"7. c #AA9147",
"8. c #BA9C43",
"9. c #B59848",
"0. c #A78D53",
"q. c #A8955A",
"w. c #B59B55",
"e. c #BDA24B",
"r. c #BCA458",
"t. c #86826C",
"y. c #958A65",
"u. c #858573",
"i. c #8C8A79",
"p. c #99937A",
"a. c #988E70",
"s. c #A89969",
"d. c #B39D64",
"f. c #A39C79",
"g. c #B9A668",
"h. c #ACA174",
"j. c #B8AB78",
"k. c #BFB27B",
"l. c #C19F47",
"z. c #C5A241",
"x. c #C9A643",
"c. c #CDA945",
"v. c #C3A54A",
"b. c #CCAB4B",
"n. c #CCA748",
"m. c #D2AD46",
"M. c #D3AF48",
"N. c #D5B047",
"B. c #D5B14A",
"V. c #DAB54B",
"C. c #DDB94E",
"Z. c #D8B448",
"A. c #C3AA5D",
"S. c #C8AA57",
"D. c #D4B354",
"F. c #D9B957",
"G. c #CFB054",
"H. c #E1BB4E",
"J. c #E2BD51",
"K. c #C5AD66",
"L. c #CAB669",
"P. c #D7BC64",
"I. c #C5B577",
"U. c #C3AE70",
"Y. c #DFC15D",
"T. c #EBC555",
"R. c #E8C45A",
"E. c #F1CB5B",
"W. c #DBC167",
"Q. c #D9C478",
"!. c #E4C76A",
"~. c #FAD568",
"^. c #E2C975",
"/. c #EAD17A",
"(. c #E6D57E",
"). c #F8DB77",
"_. c #F0CF64",
"`. c #FEE279",
"'. c #9B9887",
"]. c #948D80",
"[. c #BAB28B",
"{. c #B2AC8E",
"}. c #BCB7AC",
"|. c #C5B986",
" X c #C7BB95",
".X c #D5C788",
"XX c #D7C995",
"oX c #CFC795",
"OX c #E8D589",
"+X c #F2DC8A",
"@X c #E9D995",
"#X c #E3CF82",
"$X c #F9E689",
"%X c #F8E897",
"&X c #FFF49C",
"*X c #F7E98A",
"=X c #CBC6A8",
"-X c #DBD3A9",
";X c #D1CBB3",
":X c #E4DBA9",
">X c #E1DCB2",
",X c #F8EBA9",
"<X c #FEF7A8",
"1X c #EAE4B4",
"2X c #FEF9B4",
"3X c #FDF5BB",
"4X c #FFFBBB",
"5X c #FBF3B5",
"6X c #E9E2AD",
"7X c #D7D4C8",
"8X c #D7D3CA",
"9X c #FEFCC4",
"0X c #FFFDCB",
"qX c #FBF4C0",
"wX c #E7E5DB",
"eX c #FFFED4",
"rX c #FFFEDC",
"tX c #F1EACD",
"yX c #EDEAE2",
"uX c #FFFEEB",
"iX c #FBF9E5",
"pX c #FEFDF3",
"aX c #FFFFFF",
"sX c #F7F6F8",
"dX c #F0EDEB",
"fX c #E2DFDB",
/* pixels */
"                                                      %X$X+X*X$X+X*X%X%X,X                                                      ",
"                                              ^.Q.OX:XtXtXdXdXsXiXdXtXtX1X@X(.(.+X                                              ",
"                                        F.I.-XwXsXaXaXaXaXaXaXaXaXaXaXaXaXaXaXyX>X|.P.@X                                        ",
"                                    r.|.wXaXaXaXaXaXaXaXaXaXaXaXaXaXaXaXaXaXaXaXaXaXdXoXA.Q.iX                                  ",
"                                5.y.fXaXaXaXaXaXaXaXaXaXaXaXaXaXaXaXaXaXaXaXaXaXaXaXaXaXdX[.9.:X                                ",
"                            g.4.8XaXaXaXaXaXaXaXaXaXaXaXaXaXaXaXaXaXaXaXaXaXaXaXaXaXaXaXaXaXfXd.K.tX                            ",
"                           .{.sXaXaXaXaXaXaXaXaXaXaXaXdXfX7X;X;X;X8XfXwXsXaXaXaXaXaXaXaXaXaXaXaX=X5.XX                          ",
"                       Xo.8XaXaXaXaXaXaXaXaXaXsX}.'.i.) ( W ^ ( ^ ^ / / ) ].}.wXaXaXaXaXaXaXaXpXaXwX0.d.rX                      ",
"                     X .wXaXpXaXaXaXaXaXaXyX{.( ^ ^ _ _ _ _ _ ) _ ( _ ( ( ^ W L '.fXaXaXaXaXaXpXuXuXiX3.d.eX                    ",
"                   X2.tXuXuXpXpXaXaXaXwX'.^ Y ^ ^ ( ( ( ) ) $.$.) #.) _ ( ) ^ ^ P L #.8XaXaXpXuXiXiXrXeX3.s.4X                  ",
"                XX=.tXrXrXiXuXuXaXsX{.Y Y ( ^ ^ ( / ! Q L K L c K U U Q ) ) ( ( ^ ^ H H ].yXpXiXrXeXeX0XeX+.d.<X                ",
"                S.1X0XeXeXrXiXpXwX_ P ^ L Y ^ ( U G w w w q e A S C S e A K U / ( ^ ^ W H U ;XuXeXeX0X0X9XqXX.U.).              ",
"              L.:X0X9X0XeXeXuX7XW P Y L W L K q 8 9 C 9 H S S A S G F F S A w S L / ^ Y Y H J =XrX0X0X9X4X4X6XV ^.              ",
"            .XOX2X4XqX0X0XrX>XK H P P K K w 2 w S S A w w A S A S S S S F S S A w 9 K / ^ L P H [.rX4X3X2X2X2XoX[ !.            ",
"          OX#X2X2X2X3X4X0X-XI D F P T l 1 9 e w S w w S w w A S S C C e w w w C w 9 8 l W W P H D [.0X2X2X2X<X&X3.o.D.          ",
"          #X,X<X2X2X2X9X6Xm S F H ~ 0 > 2 r 9 e e e 9 w A S w w w C e e w e e e w e 9 9 4 W Y F H a [.9X<X<X&X$X+XX.8.          ",
"        (.@X$X<X<X2X2X4X@.l S F ~ q : 8 2 r 9 w q e 9 r q w e e w 9 9 A A w w e w w 9 9 r 6 W P H F D :X2X&X$X`.`.A.| e.        ",
"        @X).$X$X&X<X4X[.l l G R g > 2 3 2 6 2 2 9 9 9 9 9 e e w w e w w w w w w w w e w e 2 7 W L F w T <X*X`.`.~._.} >.w.      ",
"      ^.$X~.`.$X$X&X:XU w S W k - 2 r 8 8 2 9 9 r 9 9 q w 9 9 e w w e w e w w q w e e 9 r r 3 g U F G e g.&X`.~.E.E.e.{ %.      ",
"      +X~.~.).`.$X&Xp.e a U T % 2 2 9 9 9 9 9 A A A A A 9 w A w A A w A e w S 0 9 e 9 0 2 3 r 2 V K F G I ).`.~.E.H.C.{ &.      ",
"    R.+XE.~.~.).`.OXP e z ! < 2 2 2 2 r 8 8 r 6 A S A A A A e e A F A F S A S A A S w 9 r 2 2 2 p X.S G 9 K.`.E.T.C.C.=.| [     ",
"    ^.!.T._.~.).`.f.e e W c < 2 9 9 9 r 6 9 9 9 9 9 9 w A A w A w w w w A A w r 9 q r r 9 9 9 r 1 j B w Z T ~.E.T.C.b.8...{     ",
"    C.J.E.E.E.~./.U 9 q Q $ O : < 1 1 2 > > 3 1 2 r r 3 < 9 9 9 9 9 9 w e 9 e 2 3 , : : < 9 r 9 2 - } D Z 0 D.E.C.B.x.z.{ { s   ",
"  8.M.H.T.E.E.~.L.e 6 W c O > 3 3 > / i.t.$.t.$.$.P z u.u.A ^ i.$.i.p.'.i./ A D u.u.u.$.r 2 4 2 > - f R 9 9 o.E.C.B.x.;.{ ` b   ",
"  b.B.C.H.T.E.~.5.2 9 I 7 : > > 3 O -XeXeXeXeXeXiX'.W eXrXW [.rXeXrXeXeXrX=X3 $.rXeXeXeXL : r r 2 1 < V A 9 m T.C.G.z.:.%.B N   ",
"  G.m.V.C.T.T._.V 8 6 - O > : # : O oX9X3X1X>X6X1Xt.I 9X9XK {.9X3X1X:X>X1X{.O f.9X3X3X0X) 1 2 1 3 : % , 0 e g C.C.c.,.-.&.N N   ",
"  C.c.V.C.T.R.R.f 9 9 ; + O O # # O oX3X1XJ < 2 9 3 W 2X3XU h.3X5XL < 9 q q : oX2X[.6X4Xf.O : O # # : : 6 e 5 e.C.x.,.-.%.` n s ",
"` F.m.Z.V.T.R.D.7 9 < > > : + O : # [.,X@Xw - > 3 : T ,X<XI p.,X,XK : : 2 r r XX,XT XX,X[.< < < 2 : # # 6 9 8 7.C.z.;.=.%...N y ",
"{ Y.c.N.V.H.T.v.< e < < ; # > # : O k.%X@Xj.j.k.Q : T %X@XK s.%X@XI.h.j.$.r k @X@Xl k.%X.Xw r 9 3 : : < 4 q 9 2.C.x.;.*.%.{ N y ",
" .R.x.M.V.C.T.9., > 4 H @ > > 1 > O g.+XOX$X$X&X4.@ c $X+Xc q.+XOX$X*X&Xd.o c +XQ.7 d.+XOXz > 3 : % O q q 3 : X.V.<.-.*.] | N u ",
"%.Y.1.m.Z.V.T.2.0 / Q f.) J O , < O r.(.Q.q.4.3.K X v (./.v 3.(.^.q.4.3.T X R /.Q.W.^.Q./.T 1 : > w ! i.! ! S B V.,.-.&.' %.[ s ",
"5.W.<.m.Z.V.T.%.1 z / XXy.5 , 3 3 O r.W.P.5 . O O : v !.!.x 2.!.!.k X o : - 2._.W.r.S.W._.X.: 9 6 r ~ XXt.D 2 O.V.;.>.%...7.2.u ",
"=.!.<.B.N.V.T.7.3 3 n 4.K . 1 # % . 9.Y.Y.g : > 2 2 j Y.Y.x %.Y.Y.v 3 2 r 1 e.Y.7.. + e.Y.7.: 2 > : q y.N < : 3.B.;.>.%.` g.0.g ",
"%.(.<.c.N.V.C.-.: p k # z : + # : + 8.Y.Y.7 : 3 3 O j T.T.x %.T.T.v r 2 r 7 V.T.} : @ %.E.e.6 > 3 : z 2 7 f : q.c.;.*.&.N I.3.t ",
"[ OXz.c.m.Z.C.r.4 < < O O > O O : O j N n 6 , > > > % d N 7 u n N 6 1 : 2 % N B g 2 . g N B 6 > > : O . > 5 : g.1.:.*.&.N oX~ s ",
"N OXx.x.c.B.C.D.k 2 < O O : : O : > o X o : 3 : > O K $.$.w $.$.C ^ W i.S ) r o : 3 > > o o o O O O : O 2 r e K.1.;.*.%.` -XV = ",
"d (.b.x.m.B.V.C.v 1 3 O + O . : : O O 3 , > > > : 2 1X-Xf.p.>X>Xf.-X[.eXi.>XU O > > > < > > : + O O o o < , D W.<.:.*.] [ ;Xb * ",
"  Q.P.1.c.B.B.H.R : , q , + O : % : > > > 3 3 , : 6 @Xk @ a.y.y.j.k.h.,XQ.oXK - > > : O > o % > O O % q < > Q Y.,.:.*.] 2.=Xs * ",
"  A.Q.<.b.N.Z.H.7.> # V v X : , : > > 2 2 3 3 3 > 5 Q.z @ 4.4.4.s.g.q.g.g.(.v : > : O : > + O : O O l 4.< > y.1.,.-.*.' s. Xt   ",
"  5.OX1.x.M.B.B.m.7 > 7 X.- > > % > > > > r 2 2 2 > e.e.| N G.G.B 9.7.-.B _.k o > > % > > o O % O @ $.j > 2 L.1.;.-.*... Xa.*   ",
"  ..OXb.c.m.M.B.T.b O O B k : O > : > 3 > 3 3 : 2 : * m j $ h j % h g h % b 5 : > < 2 > O O : : + 6 O.% - I F.<.;.-.*...-XE u   ",
"    W.D.x.m.M.B.C.9.% - p B - % : 2 3 : % > < > , 2 : : : 3 : : r O O o 3 : > O 3 : > > : % : O o @.p , - d.B.z.;.-.&.6.XXs s   ",
"    9.!.1.c.M.M.B.J.h - O b g o O > > % % 3 2 3 > 3 > 8 3 < 2 : 3 2 3 : : 2 3 % > % > + + O : . x I # > c P.1.z.;.-.] |.h.t     ",
"    | !.c.m.m.M.Z.C.5.+ # $ T > O > : > 3 3 2 > 2 2 < 3 3 3 1 < 2 3 > 3 : > > : > O : : : > O > O.5 3 > w.Z.x.<.:.-.=.:XB u     ",
"      G.D.c.m.M.B.N.C.g O : * I . : : : : > 6 3 3 2 6 : 2 , O > > < > > > 3 % : O : 3 3 % : . Q f > # x F.c.1.,.;.*.U..Xs *     ",
"      -.D.x.m.M.B.N.C.w.O O - g I % : % O : > r 2 3 3 , 2 > : , 3 2 < > , > : > 3 3 O : : o T m # , ; w.Z.c.x.,.:.=.:X2.i       ",
"        c.-.B.m.m.N.1.T.X.o > o h I > 3 > > r r r : : 2 > r , 1 < > 3 3 : > % + + + O . + I V # 1 X E C.c.x.<.,.>.L.Q.d &       ",
"        ;.*.9.B.m.N.N.m.Y.T . # o k Q < : 3 % : : , O , 2 r , O 3 O O > > : . : : + . + V V > 3 X m C.m.c.x.<.;.9.$X2.*         ",
"          z.{ B.Z.B.N.N.N.F.I X # # p Q p ; - # ; 3 ; , , < 1 1 3 ; 4 ; ; # ; # ; + < X.m ; ; + k F.M.n.b.x.z.:.!.D.d t         ",
"          b.| B C.m.b.N.N.N.F.R o ; # & R T 5 ; ; ; ; ; ; ; 3 < 4 > ; 1 < 1 ; # < J [ p ; ; + k S.B.m.n.x.x.,.S.!. .h           ",
"            b.B 2.C.c.N.m.B.Z.C.O.; + ; ; p X.E p ; O ; ; 1 ; , > - ; 1 1 ; 0 c X.x ; ; ; # I G.N.m.m.x.n.z.x.P.9.h             ",
"              b.b 7.V.N.m.m.m.B.H.0.a + ; + # p E X.E K x a 5 6 , 5 p K I X.E x ; o ; + ; X.V.N.m.c.c.c.x.x.M.b.N &             ",
"              P.8.b 9.N.m.m.m.M.m.V.S.I ; o ; o + $ j R y.0.O.X.~ X.4.! m & + - # + X a w.V.M.m.c.c.c.x.x.x.M.%.&               ",
"                P.8.I w.B.c.b.c.m.m.N.V.q.I ; @ + # X X + + $ $ $ % + o X - + X ; x 0.D.N.n.n.n.c.x.c.n.8.b.8.y                 ",
"                  C.9.E 9.M.c.c.n.x.n.n.M.V.S.X.a ; + X . . . . . . . . X ; p T w.D.M.n.n.n.n.n.x.c.v.7.b.8.y                   ",
"                    G.w.X.0.b.1.x.z.x.x.x.n.x.M.D.A.3.R I k a Z a k c T +.w.S.M.n.n.z.z.z.z.z.z.c.9.=.n.8.u                     ",
"                      v.9.o.3.l.x.,.x.,.,.z.,.z.<.1.x.m.c.c.S.A.S.b.x.n.c.,.,.1.,.,.,.,.,.z.l.n.6.2.v.=.u                       ",
"                          7.0.+.0.l.,.,.,.,.,.,.;.;.;.;.;.;.;.;.;.;.,.8.,.,.;.,.,.,.,.,.,.l.l.o.6.9...&                         ",
"                            ] 5.6.o.7.8.>.>.,.,.-.-.-.-.-.-.-.-.-.-.-.-.-.:.-.-.,.>.>.9.6.6.o.9.{ y                             ",
"                                ` 5.0.0.6.6. .] &.*.*.&.*.&.&.*.&.&.&.*.*.*.*.]  .6.7.0.0.o. .s                                 ",
"                                  d n o.6.w.S.w.=. .{ ..' ' ] ] ] ' ' ' '  .%.w.A.A.0.6.[ s &                                   ",
"                                      M M N o.r.P.W.P.L.j.s.0.2.0.0.w.K.L.P.P.A.6.[ M y =                                       ",
"                                            y y j N X.q.[.=X.XL.K.A.w.0.o.B j y t &                                             ",
"                                                    * = * t * u * * * = = =                                                     "
};
