/* XPM */
static char *_9b23e0d658347dba2c349888c92f283R2z9X6DUC6Slu8ip[] = {
/* columns rows colors chars-per-pixel */
"32 32 204 2 ",
"   c None",
".  c #14151C",
"X  c #1B1C1D",
"o  c #171819",
"O  c #201E1D",
"+  c #25231F",
"@  c #1D1E21",
"#  c #111522",
"$  c #1F2021",
"%  c #232324",
"&  c #292724",
"*  c #2C2A26",
"=  c #252529",
"-  c #2B2B2B",
";  c #312C25",
":  c #363125",
">  c #3E3827",
",  c #35322C",
"<  c #3B372D",
"1  c #3F392A",
"2  c #3A3427",
"3  c #2F2F30",
"4  c #343434",
"5  c #3E3A32",
"6  c #373838",
"7  c #3B3B3B",
"8  c #393736",
"9  c #483A1B",
"0  c #433D2C",
"q  c #433C26",
"w  c #443D32",
"e  c #413E3B",
"r  c #51421D",
"t  c #58471E",
"y  c #4E442A",
"u  c #584C2E",
"i  c #474333",
"p  c #4C4534",
"a  c #44413C",
"s  c #4F4A3D",
"d  c #524A34",
"f  c #554E3B",
"g  c #584F32",
"h  c #5E5439",
"j  c #5D5437",
"k  c #614F24",
"l  c #635329",
"z  c #725E2C",
"x  c #64593A",
"c  c #746336",
"v  c #74653E",
"b  c #7A683B",
"n  c #3E3F40",
"m  c #403D41",
"M  c #3F4040",
"N  c #434242",
"B  c #4D4944",
"V  c #514D49",
"C  c #514D44",
"Z  c #5C5445",
"A  c #55524B",
"S  c #59554D",
"D  c #535144",
"F  c #565450",
"G  c #5D5C53",
"H  c #5A5653",
"J  c #645E47",
"K  c #615C56",
"L  c #6E6549",
"P  c #796C47",
"I  c #64625B",
"U  c #69645C",
"Y  c #656356",
"T  c #726F5B",
"R  c #7B755F",
"E  c #6D6963",
"W  c #6D6762",
"Q  c #736C66",
"!  c #747266",
"~  c #797570",
"^  c #846F3A",
"/  c #8E7533",
"(  c #8C763D",
")  c #947A33",
"_  c #987E35",
"`  c #90752E",
"'  c #8D7A44",
"]  c #867646",
"[  c #8C794B",
"{  c #837E77",
"}  c #9F802D",
"|  c #9D843B",
" . c #A3822F",
".. c #AA8A34",
"X. c #A3883A",
"o. c #B08F37",
"O. c #AC903D",
"+. c #B4933C",
"@. c #BF9C3C",
"#. c #B59236",
"$. c #C19E3D",
"%. c #C5A13E",
"&. c #988242",
"*. c #958455",
"=. c #A78D45",
"-. c #A48D4C",
";. c #A78C47",
":. c #AC914A",
">. c #AB9147",
",. c #B39543",
"<. c #BB9B44",
"1. c #B49A4C",
"2. c #B79A49",
"3. c #A99657",
"4. c #B29A52",
"5. c #B19C5A",
"6. c #B89D50",
"7. c #BDA14D",
"8. c #BAA45B",
"9. c #898367",
"0. c #988D63",
"q. c #9A906A",
"w. c #A79867",
"e. c #A59B78",
"r. c #B9A76B",
"t. c #BDAD73",
"y. c #AAA27C",
"u. c #C19E40",
"i. c #C2A143",
"p. c #CAA643",
"a. c #CDA944",
"s. c #CCAB4B",
"d. c #C4A449",
"f. c #D2AD45",
"g. c #D2AF49",
"h. c #D6B147",
"j. c #D4B14B",
"k. c #DBB64B",
"l. c #DEB94E",
"z. c #C6AA54",
"x. c #D6B75A",
"c. c #E2BC4E",
"v. c #C7B168",
"b. c #D5BA65",
"n. c #D0BF7D",
"m. c #CDBC7C",
"M. c #E8C254",
"N. c #F1CC5C",
"B. c #D8C57E",
"V. c #E7C867",
"C. c #FFDC6C",
"Z. c #F8D464",
"A. c #E0C770",
"S. c #F6D36B",
"D. c #FFE276",
"F. c #928D85",
"G. c #A19D98",
"H. c #B4AC83",
"J. c #B3AF8B",
"K. c #A8A49C",
"L. c #B9B38C",
"P. c #BCB9B3",
"I. c #ADA9A2",
"U. c #C1AF83",
"Y. c #CCBF84",
"T. c #C1B288",
"R. c #C5BD97",
"E. c #C0BDB6",
"W. c #CAC293",
"Q. c #D6CA96",
"!. c #D8C88C",
"~. c #E8D488",
"^. c #E6D99A",
"/. c #FFE881",
"(. c #F9EB99",
"). c #FFF398",
"_. c #C9C3A4",
"`. c #DCD6A9",
"'. c #D8CCAD",
"]. c #E2D7AA",
"[. c #E6DCBB",
"{. c #EBE4AA",
"}. c #FEF9A7",
"|. c #ECEABC",
" X c #F5ECB5",
".X c #F5ECB8",
"XX c #FFFDB6",
"oX c #FFFFBF",
"OX c #F0E5AE",
"+X c #D4D2CC",
"@X c #D8D5D0",
"#X c #E3DFD5",
"$X c #EEE9C6",
"%X c #FEFCC5",
"&X c #FFFFCA",
"*X c #F9F5C7",
"=X c #E7E2D8",
"-X c #FFFFDA",
";X c #F9F8D7",
":X c #F1EDDC",
">X c #F9F7E8",
",X c #FBFBF5",
"<X c #FFFFFE",
"1X c #F8F7F5",
/* pixels */
"                        ].OX X.X.X X X X                        ",
"                  !.].:X,X<X<X<X<X<X<X>X$X].].                  ",
"                _.>X<X<X<X<X<X<X<X<X<X<X<X<X=XW.[.              ",
"            T.#X<X<X<X1X@XP.K.G.G.I.P.=X<X<X<X<X'.R.            ",
"          U.>X<X<X1XP.{ Q E E ! Q Q W W F.+X<X<X,X`.U.          ",
"        Y.*X-X,X+X~ K W G S B C V A K U U H F.:X-X&X`.t.        ",
"      !. X&X-XE.F F A 7 7 7 M n m N M N V K F Q $X%X%XY.z.      ",
"    ^.(.XX%XW.p Z a 3 4 7 7 M M 7 7 7 M 6 6 H V T OXXX).5.z.    ",
"    ~.).}.{.A C i = 4 4 6 3 6 6 7 7 7 7 6 6 4 A N ! }.D.V.|     ",
"  A.C.D.).9.N f = - - 4 4 6 6 6 7 7 7 7 7 6 - , Z a v.D.N.O.>.  ",
"  V.N.D.B.N Z * 3 = - - 4 6 6 6 7 7 7 7 4 - 3 - d B L Z.M.i./   ",
"  l.M.C.*.e i % - G G I F D A G E ! I 7 G S 3 3 & h 7 s.l.i./   ",
"X.l.M.N.h 4 + X % `.*X|.J.L.W._.*X|.L.U &X%XD % $ , 6 &.l.$.) r ",
"=.l.c.l.i $ X X = ^.y., 3 H.H.W.H.6 4 9.W.{.T X % $ - v k.#.) k ",
",.h.c.s., 4 % % % B.~.!.i w.y.t.~.B.D q.w.B.0.% % * , x f.o._ k ",
"7.f.c.2.e q.K X & v.3.h - -.3.8.r.h , 8.v.b.5.% 3 9.U h a...| z ",
"8.j.k.<.: h < X % s.( # @ | ;.,.| # - s.j l j.- $ f 0 x s.} -.P ",
"1.j.h.s.5 @ X X + q > = @ L L L J F D g * + y & $ o $ P p.} w.x ",
"&.x.f.k.p = X X % X $ % 4 e.T H.H.Q.W.M $ $ X X X & $ *.p.} w.g ",
"^ V.a.c.c , 0 X % % = - < ' x -.-.-.8.i X $ X $ X Z 4 7.@.} e.t ",
"  b.a.k.,.+ u % % % = = = q q 0 : : > & % % $ o 5 w f g.#.>.0.  ",
"  7.h.h.l.y * > X % = * = % % $ = $ $ $ % $ X $ f % :.a.#.r.v   ",
"  / j.j.l.=.X > , $ % - - - = % - - $ % $ $ $ f & d h.%.@.r.9   ",
"    +.a.h.l.b . 0 5 % = = % - % $ $ $ $ o X u : ; 6.f.$.v.'     ",
"    ,.X.j.h.k.v o 0 w : + X @ $ & = @ @ , d ; % :.k.p.d.z.u     ",
"      4.| k.j.l.[ $ & w d w w w , w w d 0 . w 2.h.a.p.j.z       ",
"        =.=.j.a.k.1.d O + q w d d w ; o * v s.j.f.p.a._         ",
"          >.:.a.p.f.g.1.] w q - ; 0 h [ u.h.s.u.i.d.|           ",
"            ;.-.u.u.$.$.p.s.u.2.u.u.a.p.$.$.$.u.>.^             ",
"              / ' :.,.+.................,.2.;.^ 9               ",
"                  z ( :.2.4.3.-.;.:.4.4.;.^ r                   ",
"                        k c [ ] ^ b l 9                         "
};
