/* XPM */
static char *b813deac51d14c6bf678000ddfa69fc04xWrU1iHNTFLywQW[] = {
/* columns rows colors chars-per-pixel */
"16 16 206 2 ",
"   c None",
".  c #0E0F14",
"X  c #14161C",
"o  c #17181E",
"O  c #18191C",
"+  c #21211F",
"@  c #1C1D20",
"#  c #1D1E21",
"$  c #1F1F21",
"%  c #1D1E22",
"&  c #1F2022",
"*  c #212120",
"=  c #212222",
"-  c #222223",
";  c #202124",
":  c #212225",
">  c #232426",
",  c #242526",
"<  c #282827",
"1  c #2C2A24",
"2  c #2D2B24",
"3  c #2D2B27",
"4  c #2E2B26",
"5  c #262728",
"6  c #282829",
"7  c #2B2828",
"8  c #28282A",
"9  c #2C2A28",
"0  c #2F2B28",
"q  c #2D2C28",
"w  c #2F2C28",
"e  c #2E2D29",
"r  c #2E2C2B",
"t  c gray18",
"y  c #302E28",
"u  c #302E2A",
"i  c #343024",
"p  c #353126",
"a  c #2F3032",
"s  c #323233",
"d  c #343333",
"f  c #363332",
"g  c #343436",
"h  c #353536",
"j  c #3A3731",
"k  c #383635",
"l  c #3C3931",
"z  c #383837",
"x  c #383839",
"c  c #393939",
"v  c #3C3C3C",
"b  c #3E3E3D",
"n  c #403928",
"m  c #433B2B",
"M  c #433D30",
"N  c #423F3D",
"B  c #4D452F",
"V  c #544A2B",
"C  c #52492E",
"Z  c #464032",
"A  c #4B4230",
"S  c #4B4330",
"D  c #4C4531",
"F  c #4E4935",
"G  c #554A31",
"H  c #584D31",
"J  c #5D5033",
"K  c #5C533A",
"L  c #665427",
"P  c #635129",
"I  c #735D26",
"U  c #615430",
"Y  c #645735",
"T  c #675934",
"R  c #605538",
"E  c #635B3E",
"W  c #76612F",
"Q  c #78642F",
"!  c #6F613E",
"~  c #7F6A30",
"^  c #7E6C38",
"/  c #4B4941",
"(  c #4F4A41",
")  c #4E4944",
"_  c #4D4D48",
"`  c #4F4F4A",
"'  c #544E40",
"]  c #504F4A",
"[  c #5B5640",
"{  c #50504B",
"}  c #5E594E",
"|  c #5C5751",
" . c #585851",
".. c #5F5A53",
"X. c #5F5A54",
"o. c #645B42",
"O. c #625C47",
"+. c #645F59",
"@. c #6B6242",
"#. c #686044",
"$. c #736946",
"%. c #7D6D46",
"&. c #64645C",
"*. c #69645E",
"=. c #777051",
"-. c #7D7A66",
";. c #816A2E",
":. c #836D36",
">. c #857037",
",. c #8C7431",
"<. c #8A763B",
"1. c #8B763B",
"2. c #8F793B",
"3. c #927B3A",
"4. c #867544",
"5. c #81754B",
"6. c #927F47",
"7. c #857854",
"8. c #887E58",
"9. c #827E64",
"0. c #AC8D3B",
"q. c #AF903B",
"w. c #B9983D",
"e. c #9B894F",
"r. c #978958",
"t. c #A38840",
"y. c #A58A43",
"u. c #AA8B41",
"i. c #AF8F41",
"p. c #A18B4E",
"a. c #AF964E",
"s. c #B89740",
"d. c #BD9C40",
"f. c #BD9D43",
"g. c #BD9E46",
"h. c #B3984B",
"j. c #A3935E",
"k. c #BFA04C",
"l. c #BAA256",
"z. c #BCA65E",
"x. c #8F8B70",
"c. c #86827D",
"v. c #B3A56E",
"b. c #C09F41",
"n. c #C19F41",
"m. c #C5A446",
"M. c #C5A547",
"N. c #C9A542",
"B. c #C9A642",
"V. c #C8A444",
"C. c #C8A646",
"Z. c #C9A747",
"A. c #CAA647",
"S. c #CAA747",
"D. c #CEAA45",
"F. c #C7A84D",
"G. c #CBA948",
"H. c #CCA948",
"J. c #CDAE4F",
"K. c #D1AC45",
"L. c #D0AC48",
"P. c #D3AF49",
"I. c #D4B04A",
"U. c #D8B44B",
"Y. c #DAB54A",
"T. c #CDAF53",
"R. c #E5BE4F",
"E. c #E3BE54",
"W. c #C8AF63",
"Q. c #C5B169",
"!. c #D2BC70",
"~. c #FDD967",
"^. c #EFD97F",
"/. c #8F8B88",
"(. c #B8B48E",
"). c #B9B691",
"_. c #BAB699",
"`. c #C7C095",
"'. c #D6CA93",
"]. c #DAD192",
"[. c #FDE684",
"{. c #D2CFA6",
"}. c #D7D0A1",
"|. c #DCD4BC",
" X c #ECDFA3",
".X c #EBDEA6",
"XX c #E1D6AA",
"oX c #E5DCBF",
"OX c #F4ECA3",
"+X c #FFFDBD",
"@X c #D3D2D0",
"#X c #D4D2D4",
"$X c #D6D4D5",
"%X c #E0DFD8",
"&X c #F2ECCF",
"*X c #F3EEDF",
"=X c #F9F6D2",
"-X c #FBF5D4",
";X c #FCF7DA",
":X c #E5E4E6",
">X c #E7E6E6",
",X c #F5F1E7",
"<X c #FFFCE0",
"1X c #FEFCEB",
"2X c #FFFEFC",
"3X c #FDFEFF",
/* pixels */
"          .X-X<X<X;X&X          ",
"      |.,X3X:X#X$X:X3X,XoX      ",
"    XX1X@Xc.+.| +.*./.$X=X'.    ",
"   X+X_.( k x v x b Z X.}.OXW.  ",
"  [.].( 9 6 s g g x s d ..^.J.  ",
"T.~.7.r x  .] ` &.{ _ t l p.Y.~ ",
"b.E.M . 9.).x.`.(.-.}./ o R D.I ",
"G.M.' 6 5.j.@.Q.r.$.!.#.d o.w.;.",
"F.m.Z $ V n F e.O.E P G > K s.4.",
"h.Y.D $ % % K 8.v.=.X O : ! f.%.",
"3.E.>.2 : 5 u p i 2 $ + l t.k.T ",
"  N.G.m 2 6 > : = @ + r Y K.a.  ",
"  z.N.g.B 2 6 u r r 2 J M.I.Q   ",
"    l.S.S.^ G D B H 1.L.I.,.    ",
"      y.i.S.w.0.q.b.S.u.L       ",
"          Q 1.6.2.:.P           "
};
